<svg width="50" height="51" viewBox="0 0 50 51" fill="none" xmlns="http://www.w3.org/2000/svg">
<g filter="url(#filter0_bdi_142_152)">
<path d="M18.1348 37.2743V34.2166C18.1348 33.436 18.7722 32.8033 19.5584 32.8033H22.4326C22.8102 32.8033 23.1723 32.9522 23.4393 33.2172C23.7063 33.4823 23.8563 33.8418 23.8563 34.2166V37.2743C23.8539 37.5988 23.9821 37.9109 24.2124 38.1412C24.4427 38.3715 24.7561 38.501 25.0829 38.501H27.0438C27.9596 38.5033 28.8388 38.1438 29.4872 37.5018C30.1356 36.8597 30.5 35.988 30.5 35.0788V26.3678C30.5 25.6334 30.1721 24.9368 29.6046 24.4656L22.934 19.1768C21.7737 18.2495 20.1111 18.2795 18.9854 19.248L12.467 24.4656C11.8727 24.9229 11.5176 25.6216 11.5 26.3678V35.0699C11.5 36.9648 13.0474 38.501 14.9562 38.501H16.8723C17.5512 38.501 18.103 37.9572 18.1079 37.2832L18.1348 37.2743Z" fill="#DCECFF" fill-opacity="0.0175" shape-rendering="crispEdges"/>
<path d="M27.0438 38.501H25.0829C24.7561 38.501 24.4427 38.3715 24.2124 38.1412C23.9821 37.9109 23.8539 37.5988 23.8563 37.2743L27.0438 38.501ZM27.0438 38.501C27.9596 38.5033 28.8388 38.1438 29.4872 37.5018C30.1356 36.8597 30.5 35.988 30.5 35.0788V26.3678C30.5 25.6334 30.1721 24.9368 29.6046 24.4656L27.0438 38.501ZM24.1063 37.2762V37.2743V34.2166C24.1063 33.7749 23.9295 33.3516 23.6154 33.0398C23.3014 32.7281 22.8759 32.5533 22.4326 32.5533H19.5584C18.6358 32.5533 17.8848 33.2963 17.8848 34.2166V37.0937L17.8592 37.1022L17.8579 37.2814C17.854 37.8163 17.4156 38.251 16.8723 38.251H14.9562C13.1837 38.251 11.75 36.825 11.75 35.0699V26.3709C11.7666 25.7016 12.0855 25.0747 12.6195 24.6638L12.6195 24.6638L12.6232 24.6608L19.1416 19.4431L19.1417 19.4433L19.1484 19.4375C20.183 18.5474 21.7115 18.5199 22.778 19.3721L22.7787 19.3727L29.447 24.6597C29.9563 25.0836 30.25 25.7091 30.25 26.3678V35.0788C30.25 35.9209 29.9125 36.7289 29.3113 37.3241C28.71 37.9195 27.8945 38.2532 27.0445 38.251H27.0438H25.0829C24.8221 38.251 24.5724 38.1476 24.3891 37.9644C24.206 37.7812 24.1044 37.5334 24.1063 37.2762Z" stroke="white" stroke-opacity="0.35" stroke-width="0.5" shape-rendering="crispEdges"/>
</g>
<defs>
<filter id="filter0_bdi_142_152" x="-0.5" y="0.500977" width="50" height="50" filterUnits="userSpaceOnUse" color-interpolation-filters="sRGB">
<feFlood flood-opacity="0" result="BackgroundImageFix"/>
<feGaussianBlur in="BackgroundImageFix" stdDeviation="6"/>
<feComposite in2="SourceAlpha" operator="in" result="effect1_backgroundBlur_142_152"/>
<feColorMatrix in="SourceAlpha" type="matrix" values="0 0 0 0 0 0 0 0 0 0 0 0 0 0 0 0 0 0 127 0" result="hardAlpha"/>
<feOffset dx="4" dy="-3"/>
<feGaussianBlur stdDeviation="7.5"/>
<feComposite in2="hardAlpha" operator="out"/>
<feColorMatrix type="matrix" values="0 0 0 0 1 0 0 0 0 1 0 0 0 0 1 0 0 0 0.25 0"/>
<feBlend mode="normal" in2="effect1_backgroundBlur_142_152" result="effect2_dropShadow_142_152"/>
<feBlend mode="normal" in="SourceGraphic" in2="effect2_dropShadow_142_152" result="shape"/>
<feColorMatrix in="SourceAlpha" type="matrix" values="0 0 0 0 0 0 0 0 0 0 0 0 0 0 0 0 0 0 127 0" result="hardAlpha"/>
<feOffset dy="-4.58"/>
<feGaussianBlur stdDeviation="2.29"/>
<feComposite in2="hardAlpha" operator="arithmetic" k2="-1" k3="1"/>
<feColorMatrix type="matrix" values="0 0 0 0 0.862745 0 0 0 0 0.92549 0 0 0 0 1 0 0 0 0.3026 0"/>
<feBlend mode="normal" in2="shape" result="effect3_innerShadow_142_152"/>
</filter>
</defs>
</svg>
