<svg width="128" height="158" viewBox="0 0 128 158" fill="none" xmlns="http://www.w3.org/2000/svg">
<path d="M13.2147 139.398C13.4671 139.861 13.7544 140.436 14.0768 141.122C14.4133 141.795 14.7567 142.531 15.1071 143.33C15.4716 144.115 15.829 144.921 16.1795 145.748C16.5299 146.575 16.8593 147.353 17.1677 148.082C17.4761 147.353 17.8055 146.575 18.156 145.748C18.5064 144.921 18.8569 144.115 19.2073 143.33C19.5718 142.531 19.9152 141.795 20.2376 141.122C20.5741 140.436 20.8684 139.861 21.1207 139.398H24.1065C24.2467 140.366 24.3729 141.452 24.485 142.657C24.6112 143.849 24.7163 145.096 24.8004 146.4C24.8985 147.69 24.9826 148.986 25.0527 150.29C25.1368 151.594 25.2069 152.82 25.263 153.97H22.0669C22.0249 152.554 21.9688 151.012 21.8987 149.344C21.8286 147.676 21.7235 145.994 21.5833 144.297C21.331 144.886 21.0507 145.538 20.7423 146.253C20.4339 146.968 20.1255 147.683 19.8171 148.398C19.5227 149.113 19.2354 149.799 18.955 150.458C18.6746 151.103 18.4363 151.657 18.2401 152.119H15.9482C15.7519 151.657 15.5136 151.103 15.2333 150.458C14.9529 149.799 14.6586 149.113 14.3502 148.398C14.0558 147.683 13.7544 146.968 13.446 146.253C13.1376 145.538 12.8573 144.886 12.605 144.297C12.4648 145.994 12.3597 147.676 12.2896 149.344C12.2195 151.012 12.1634 152.554 12.1214 153.97H8.9253C8.98138 152.82 9.04446 151.594 9.11454 150.29C9.19865 148.986 9.28276 147.69 9.36686 146.4C9.46499 145.096 9.57012 143.849 9.68226 142.657C9.80842 141.452 9.94159 140.366 10.0818 139.398H13.2147ZM27.1801 148.524C27.1801 147.543 27.3273 146.688 27.6216 145.959C27.93 145.216 28.3295 144.599 28.8202 144.108C29.3108 143.618 29.8715 143.246 30.5023 142.994C31.1471 142.742 31.8059 142.615 32.4788 142.615C34.0488 142.615 35.2894 143.099 36.2005 144.066C37.1117 145.019 37.5672 146.428 37.5672 148.293C37.5672 148.475 37.5602 148.678 37.5462 148.902C37.5322 149.113 37.5182 149.302 37.5042 149.47H30.3972C30.4673 150.115 30.7686 150.626 31.3013 151.005C31.834 151.383 32.5489 151.573 33.446 151.573C34.0207 151.573 34.5815 151.524 35.1282 151.426C35.6889 151.313 36.1444 151.18 36.4949 151.026L36.9154 153.57C36.7472 153.654 36.5229 153.738 36.2426 153.823C35.9622 153.907 35.6468 153.977 35.2964 154.033C34.9599 154.103 34.5955 154.159 34.203 154.201C33.8105 154.243 33.418 154.264 33.0255 154.264C32.0302 154.264 31.1611 154.117 30.4182 153.823C29.6893 153.528 29.0795 153.129 28.5889 152.624C28.1123 152.105 27.7548 151.496 27.5165 150.795C27.2922 150.094 27.1801 149.337 27.1801 148.524ZM34.5394 147.325C34.5254 147.059 34.4763 146.8 34.3922 146.547C34.3221 146.295 34.203 146.071 34.0348 145.874C33.8806 145.678 33.6773 145.517 33.425 145.391C33.1867 145.265 32.8853 145.202 32.5209 145.202C32.1704 145.202 31.869 145.265 31.6167 145.391C31.3644 145.503 31.1541 145.657 30.9859 145.853C30.8177 146.05 30.6845 146.281 30.5864 146.547C30.5023 146.8 30.4392 147.059 30.3972 147.325H34.5394ZM39.5795 140.155L42.7124 139.651V142.91H46.4762V145.517H42.7124V149.407C42.7124 150.066 42.8246 150.591 43.0488 150.984C43.2871 151.376 43.7567 151.573 44.4576 151.573C44.7941 151.573 45.1375 151.545 45.4879 151.489C45.8524 151.418 46.1818 151.327 46.4762 151.215L46.9177 153.654C46.5393 153.809 46.1187 153.942 45.6561 154.054C45.1936 154.166 44.6258 154.222 43.953 154.222C43.0979 154.222 42.39 154.11 41.8293 153.886C41.2686 153.647 40.82 153.325 40.4836 152.918C40.1472 152.498 39.9089 151.993 39.7687 151.404C39.6425 150.816 39.5795 150.164 39.5795 149.449V140.155ZM52.5428 151.783C52.8512 151.783 53.1455 151.776 53.4259 151.762C53.7062 151.748 53.9305 151.727 54.0987 151.699V149.323C53.9726 149.295 53.7833 149.267 53.531 149.239C53.2787 149.211 53.0474 149.197 52.8371 149.197C52.5428 149.197 52.2624 149.218 51.9961 149.26C51.7438 149.288 51.5195 149.351 51.3232 149.449C51.127 149.547 50.9728 149.68 50.8606 149.849C50.7485 150.017 50.6924 150.227 50.6924 150.479C50.6924 150.97 50.8536 151.313 51.176 151.51C51.5125 151.692 51.968 151.783 52.5428 151.783ZM52.2904 142.615C53.2156 142.615 53.9866 142.72 54.6034 142.931C55.2202 143.141 55.7108 143.442 56.0752 143.835C56.4537 144.227 56.7201 144.704 56.8742 145.265C57.0284 145.825 57.1055 146.449 57.1055 147.136V153.654C56.657 153.752 56.0332 153.865 55.2342 153.991C54.4352 154.131 53.4679 154.201 52.3325 154.201C51.6176 154.201 50.9658 154.138 50.377 154.012C49.8023 153.886 49.3047 153.682 48.8841 153.402C48.4636 153.108 48.1412 152.729 47.9169 152.267C47.6926 151.804 47.5805 151.236 47.5805 150.563C47.5805 149.919 47.7066 149.372 47.959 148.923C48.2253 148.475 48.5757 148.117 49.0103 147.851C49.4448 147.585 49.9425 147.395 50.5032 147.283C51.0639 147.157 51.6456 147.094 52.2484 147.094C52.6549 147.094 53.0124 147.115 53.3207 147.157C53.6432 147.185 53.9025 147.227 54.0987 147.283V146.989C54.0987 146.456 53.9375 146.029 53.6151 145.706C53.2927 145.384 52.732 145.223 51.933 145.223C51.4003 145.223 50.8747 145.265 50.356 145.349C49.8373 145.419 49.3888 145.524 49.0103 145.664L48.6108 143.141C48.793 143.085 49.0173 143.029 49.2836 142.973C49.564 142.903 49.8654 142.847 50.1878 142.805C50.5102 142.749 50.8466 142.706 51.1971 142.678C51.5615 142.636 51.926 142.615 52.2904 142.615ZM66.9554 141.921C65.4275 141.921 64.3201 142.349 63.6332 143.204C62.9604 144.045 62.6239 145.202 62.6239 146.673C62.6239 147.388 62.7081 148.04 62.8763 148.629C63.0445 149.204 63.2968 149.701 63.6332 150.122C63.9697 150.542 64.3902 150.872 64.8948 151.11C65.3995 151.334 65.9882 151.447 66.6611 151.447C67.0255 151.447 67.3339 151.44 67.5862 151.426C67.8526 151.411 68.0839 151.383 68.2801 151.341V146.274H71.5603V153.486C71.1678 153.64 70.537 153.802 69.6679 153.97C68.7988 154.152 67.7264 154.243 66.4508 154.243C65.3574 154.243 64.3621 154.075 63.465 153.738C62.5819 153.402 61.8249 152.911 61.1941 152.267C60.5633 151.622 60.0727 150.83 59.7223 149.891C59.3858 148.951 59.2176 147.879 59.2176 146.673C59.2176 145.454 59.4069 144.375 59.7854 143.435C60.1638 142.496 60.6825 141.704 61.3413 141.059C62.0002 140.401 62.7711 139.903 63.6543 139.566C64.5514 139.23 65.5046 139.062 66.5139 139.062C67.2007 139.062 67.8175 139.111 68.3642 139.209C68.9249 139.293 69.4015 139.398 69.794 139.524C70.2005 139.637 70.53 139.756 70.7823 139.882C71.0486 140.008 71.2379 140.106 71.35 140.176L70.4038 142.805C69.9552 142.566 69.4366 142.363 68.8478 142.195C68.2731 142.013 67.6423 141.921 66.9554 141.921ZM83.5425 153.591C83.0099 153.745 82.323 153.886 81.4819 154.012C80.6409 154.152 79.7578 154.222 78.8326 154.222C77.8934 154.222 77.1084 154.096 76.4776 153.844C75.8608 153.591 75.3702 153.241 75.0057 152.792C74.6413 152.33 74.3819 151.783 74.2278 151.152C74.0736 150.521 73.9965 149.827 73.9965 149.071V142.91H77.1294V148.692C77.1294 149.701 77.2626 150.43 77.5289 150.879C77.7953 151.327 78.2929 151.552 79.0218 151.552C79.2461 151.552 79.4844 151.545 79.7367 151.531C79.989 151.503 80.2133 151.475 80.4096 151.447V142.91H83.5425V153.591ZM89.3161 153.97H86.1831V142.91H89.3161V153.97ZM89.6104 139.714C89.6104 140.288 89.4212 140.744 89.0427 141.08C88.6782 141.403 88.2437 141.564 87.7391 141.564C87.2344 141.564 86.7929 141.403 86.4144 141.08C86.0499 140.744 85.8677 140.288 85.8677 139.714C85.8677 139.139 86.0499 138.69 86.4144 138.368C86.7929 138.032 87.2344 137.863 87.7391 137.863C88.2437 137.863 88.6782 138.032 89.0427 138.368C89.4212 138.69 89.6104 139.139 89.6104 139.714ZM94.6311 148.356C94.6311 149.323 94.8484 150.101 95.2829 150.69C95.7175 151.278 96.3623 151.573 97.2174 151.573C97.4977 151.573 97.7571 151.566 97.9954 151.552C98.2337 151.524 98.4299 151.496 98.5841 151.468V145.769C98.3879 145.643 98.1285 145.538 97.8061 145.454C97.4977 145.37 97.1823 145.328 96.8599 145.328C95.374 145.328 94.6311 146.337 94.6311 148.356ZM101.717 153.612C101.437 153.696 101.114 153.78 100.75 153.865C100.385 153.935 99.9999 153.998 99.5934 154.054C99.2009 154.11 98.7944 154.152 98.3738 154.18C97.9673 154.222 97.5748 154.243 97.1964 154.243C96.2852 154.243 95.4722 154.11 94.7573 153.844C94.0424 153.577 93.4396 153.199 92.949 152.708C92.4584 152.203 92.0799 151.601 91.8135 150.9C91.5612 150.185 91.4351 149.386 91.4351 148.503C91.4351 147.606 91.5472 146.8 91.7715 146.085C91.9958 145.356 92.3182 144.739 92.7387 144.234C93.1592 143.73 93.6709 143.344 94.2737 143.078C94.8904 142.812 95.5913 142.678 96.3763 142.678C96.8109 142.678 97.1964 142.72 97.5328 142.805C97.8832 142.889 98.2337 143.008 98.5841 143.162V138.158L101.717 137.653V153.612ZM103.825 148.524C103.825 147.543 103.972 146.688 104.266 145.959C104.575 145.216 104.974 144.599 105.465 144.108C105.955 143.618 106.516 143.246 107.147 142.994C107.792 142.742 108.45 142.615 109.123 142.615C110.693 142.615 111.934 143.099 112.845 144.066C113.756 145.019 114.212 146.428 114.212 148.293C114.212 148.475 114.205 148.678 114.191 148.902C114.177 149.113 114.163 149.302 114.149 149.47H107.042C107.112 150.115 107.413 150.626 107.946 151.005C108.478 151.383 109.193 151.573 110.091 151.573C110.665 151.573 111.226 151.524 111.773 151.426C112.333 151.313 112.789 151.18 113.139 151.026L113.56 153.57C113.392 153.654 113.167 153.738 112.887 153.823C112.607 153.907 112.291 153.977 111.941 154.033C111.604 154.103 111.24 154.159 110.847 154.201C110.455 154.243 110.062 154.264 109.67 154.264C108.675 154.264 107.806 154.117 107.063 153.823C106.334 153.528 105.724 153.129 105.233 152.624C104.757 152.105 104.399 151.496 104.161 150.795C103.937 150.094 103.825 149.337 103.825 148.524ZM111.184 147.325C111.17 147.059 111.121 146.8 111.037 146.547C110.967 146.295 110.847 146.071 110.679 145.874C110.525 145.678 110.322 145.517 110.069 145.391C109.831 145.265 109.53 145.202 109.165 145.202C108.815 145.202 108.514 145.265 108.261 145.391C108.009 145.503 107.799 145.657 107.63 145.853C107.462 146.05 107.329 146.281 107.231 146.547C107.147 146.8 107.084 147.059 107.042 147.325H111.184Z" fill="url(#paint0_linear_4_2522)"/>
<path d="M127.964 64.0181C127.983 77.7194 123.59 91.0624 115.435 102.068C115.213 102.378 114.98 102.679 114.738 102.98C114.496 103.28 114.457 103.348 114.321 103.513C113.846 104.124 113.352 104.725 112.858 105.317C112.364 105.908 111.889 106.48 111.347 107.043C111.007 107.421 110.668 107.799 110.31 108.167L109.234 109.263L108.139 110.339L107.587 110.844C100.713 117.237 92.5179 122.037 83.5824 124.905C74.6469 127.773 65.1902 128.637 55.8833 127.437C46.5764 126.238 37.6474 123.003 29.7299 117.962C21.8124 112.922 15.1003 106.199 10.0699 98.2713C5.03951 90.3437 1.81409 81.4053 0.622493 72.0903C-0.569103 62.7753 0.302325 53.312 3.17495 44.3718C6.04757 35.4316 10.851 27.2337 17.2444 20.3597C23.6378 13.4856 31.4645 8.1039 40.1692 4.59638C47.7418 1.54477 55.8316 -0.0158381 63.9951 0.000121175C64.809 0.000121175 65.6132 0.000121179 66.4271 0.0583017C70.4142 0.197003 74.379 0.716523 78.2674 1.60978C83.4183 2.78857 88.404 4.5994 93.1114 7.00117C103.607 12.3679 112.416 20.5329 118.566 30.5945C124.716 40.6562 127.969 52.2231 127.964 64.0181Z" fill="#0F3447"/>
<path d="M96.3652 22.3696C96.3666 22.3793 96.3659 22.3892 96.3631 22.3986C96.3604 22.408 96.3556 22.4167 96.3491 22.424C96.3427 22.4314 96.3347 22.4373 96.3258 22.4413C96.3169 22.4453 96.3072 22.4473 96.2974 22.4472C95.8517 22.4472 93.4681 22.4472 92.9546 21.3127C92.3917 20.2128 91.5324 19.2925 90.4741 18.6558C89.4277 17.9576 87.9549 13.1771 86.8503 15.4171C86.6648 15.8085 86.6107 16.2495 86.6963 16.6742C86.7819 17.0989 87.0025 17.4845 87.3251 17.7734C87.389 17.8156 87.4426 17.8715 87.4821 17.9371C87.5216 18.0026 87.546 18.0762 87.5534 18.1524C87.5608 18.2287 87.5512 18.3056 87.5251 18.3776C87.499 18.4495 87.4572 18.5148 87.4026 18.5685C86.8988 19.2473 86.269 19.2279 85.1741 19.5382C84.0792 19.8485 83.2362 24.7357 84.2052 24.5223C85.1741 24.309 86.4046 23.4169 87.7611 23.8823C89.1176 24.3478 94.5436 27.6447 92.6639 29.0507C92.3345 29.3028 89.8734 26.7914 89.0789 26.5392C88.5363 26.355 89.7474 28.2556 89.9315 28.8471C90.5659 30.6111 90.7439 32.507 90.4491 34.3585C90.1544 36.2099 89.3963 37.9566 88.2456 39.4359C87.5383 40.4638 90.7164 41.5692 90.6001 42.9946C90.4838 44.42 89.6312 46.0879 88.827 45.8067C88.0228 45.5255 88.7495 43.3146 87.6158 42.7037C86.4822 42.0928 84.4474 39.688 83.556 41.0456C82.6646 42.4031 81.56 45.6612 82.8777 46.3788C84.1955 47.0964 86.2496 47.1254 86.6856 50.2575C87.1217 53.3895 83.6917 62.7275 78.9342 64.0463C74.1768 65.365 74.5547 66.7323 76.1631 68.1868C77.7715 69.6413 80.7461 74.0048 77.2289 76.4775C73.7117 78.9502 73.8764 75.5078 71.5413 74.703C69.2062 73.8982 68.9543 77.3114 70.4755 78.9599C71.9967 80.6083 75.0391 82.1986 74.9616 84.1282C74.8841 86.0579 73.9927 85.2822 72.6556 84.7197C71.3184 84.1573 71.5122 82.4022 69.5938 81.1222C67.6753 79.8423 68.557 76.846 67.3555 74.5478C66.1541 72.2497 64.0224 72.8315 62.5109 71.3382C60.9994 69.8449 62.1911 67.9444 60.5149 66.1602C58.8387 64.376 55.3311 63.1445 53.6743 66.0535C52.31 68.4981 50.3245 70.5387 47.9188 71.9685C46.0779 73.0352 48.6455 75.8472 47.0759 77.9611C46.4505 78.8507 45.6531 79.6058 44.7311 80.1817C44.6615 80.2201 44.5845 80.2431 44.5053 80.2491C44.4261 80.2551 44.3465 80.2439 44.272 80.2163C44.1975 80.1887 44.1298 80.1453 44.0736 80.0891C44.0174 80.0329 43.9739 79.9653 43.9462 79.8908C43.0548 77.6217 39.7605 68.9237 40.0705 65.6947C40.429 61.9615 31.2339 61.37 28.114 59.3143C24.994 57.2585 22.6686 50.6551 21.69 51.4211C20.7114 52.1871 20.8082 59.9639 22.8914 59.8573C24.0231 59.7771 25.1604 59.8488 26.273 60.0706C26.4474 60.3033 28.8891 63.5323 26.3699 65.8886C23.8507 68.245 16.7291 70.9116 15.5373 69.9322C14.3455 68.9528 14.8784 52.478 13.4541 51.1981C12.0298 49.9181 12.3592 60.2936 12.3592 62.6014C12.3592 64.9093 12.9406 70.5916 14.0064 71.2025C15.0722 71.8134 19.3645 74.063 20.0137 72.9576C20.6629 71.8521 19.9071 81.6847 14.549 85.0009C9.1908 88.3172 16.0799 98.9158 16.8453 100.884C17.4364 102.407 17.9596 106.702 18.3084 108.583C18.3569 108.845 18.3084 108.816 18.1049 108.583C12.1949 102.502 7.55197 95.3047 4.4463 87.411C1.34063 79.5174 -0.16585 71.0845 0.0144708 62.6029C0.194792 54.1213 2.05831 45.7602 5.49667 38.0058C8.93502 30.2515 13.8796 23.2586 20.0428 17.434C20.2269 17.3661 37.4835 11.2378 38.8981 12.8959C40.3128 14.5541 36.1754 18.9467 38.8981 18.3261C41.6208 17.7055 46.4073 15.8243 47.6185 16.8619C48.8296 17.8994 50.128 16.2219 52.4631 15.5043C54.7982 14.7868 60.2145 12.6826 60.3986 12.5953C63.5167 13.0259 66.6791 13.0259 69.7972 12.5953C74.2349 11.8778 80.7655 7.04878 83.7692 8.04755C86.7728 9.04631 88.7882 9.81235 89.6409 11.5093C90.4935 13.2062 89.699 14.3407 90.542 15.2522C91.3849 16.1637 92.6833 17.0364 93.6038 18.0255C94.5243 19.0146 96.1036 21.2157 96.3652 22.3696Z" fill="url(#paint1_linear_4_2522)"/>
<path d="M93.2357 31.2522C93.2357 31.2522 94.4274 32.4158 94.0689 33.0073C93.7104 33.5988 94.4662 35.48 94.8247 35.8C95.1765 36.2589 95.4026 36.8017 95.4808 37.3747C95.559 37.9478 95.4864 38.5314 95.2704 39.0678C94.6309 40.4254 94.6697 41.5793 93.8752 42.1708C93.0806 42.7623 91.5207 44.8859 92.1989 45.8846C92.8772 46.8834 93.4973 48.4349 93.7879 48.0373C94.0786 47.6397 93.5942 45.9234 94.3112 44.7307C95.0282 43.538 96.5785 43.092 97.5377 41.7344C97.9622 41.2254 98.2266 40.6019 98.2973 39.9426C98.368 39.2833 98.2419 38.6179 97.935 38.0303C97.373 36.7891 95.8905 34.7625 95.1832 34.7237C94.4759 34.6849 94.534 34.2388 95.1832 33.754C95.8324 33.2692 96.2587 33.8316 96.5397 32.6389C96.8207 31.4462 96.4234 31.7565 96.1424 30.8837C95.8615 30.011 95.2704 31.1262 94.4274 30.8837C93.5845 30.6413 93.1581 30.2535 93.2357 31.2522Z" fill="url(#paint2_linear_4_2522)"/>
<path d="M81.1629 83.9449C80.6784 84.9824 80.1261 86.6406 81.1629 87.7557C82.1996 88.8708 87.1896 90.5968 88.3717 89.346C89.5538 88.0951 89.4763 84.4976 90.5905 83.5279C91.7048 82.5582 89.4085 80.9001 89.5829 79.6395C89.7573 78.3789 88.7593 76.3135 87.5094 77.2153C86.2594 78.1171 85.494 81.511 84.1084 82.277C82.7229 83.0431 81.1629 83.9449 81.1629 83.9449Z" fill="url(#paint3_linear_4_2522)"/>
<path d="M102.847 80.7342C103.661 78.9985 105.599 82.1597 106.723 80.7342C108.603 78.4458 114.252 78.5137 115.521 80.2785C116.49 81.5972 116.18 83.1875 117.401 83.8081C118.622 84.4287 119.058 85.1366 117.401 85.4662C115.744 85.7959 114.862 82.4893 113.641 84.1475C113.265 84.7805 112.732 85.3057 112.094 85.6726C111.456 86.0394 110.734 86.2356 109.998 86.242C108.341 86.465 109.998 84.7002 109.116 84.0311C108.235 83.3621 105.115 84.3608 104.562 83.3718C104.01 82.3827 101.927 82.7124 102.847 80.7342Z" fill="url(#paint4_linear_4_2522)"/>
<path d="M115.424 102.106C115.424 102.106 117.013 98.2273 116.393 96.288C115.773 94.3486 112.517 90.7026 112.517 88.7827C112.517 86.8627 111.49 88.3075 111.335 90.8966C111.18 93.4856 111.18 95.1922 109.785 95.008C108.39 94.8237 107.847 93.2723 107.46 91.9826C107.072 90.6929 103.584 89.6554 102.799 91.9826C102.014 94.3098 96.5398 100.138 93.4877 102.067C90.4356 103.997 85.5813 104.2 86.3564 108.186C87.1315 112.171 88.0617 114.401 87.6451 114.712C87.2284 115.022 87.3835 115.681 90.1255 114.188C92.8676 112.695 101.491 107.459 102.586 108.962C103.144 109.724 103.913 110.306 104.798 110.637C105.683 110.968 106.645 111.033 107.566 110.823C110.447 108.164 113.077 105.246 115.424 102.106Z" fill="url(#paint5_linear_4_2522)"/>
<path d="M20.0913 100.138C20.0913 100.138 22.0292 98.9839 22.0292 98.0724C22.0292 97.1609 22.4652 97.8009 23.2597 99.3039C24.0543 100.807 23.6958 101.36 24.0833 103.26C24.4709 105.161 25.7499 107.818 25.3139 108.012C24.8778 108.206 22.0292 106.741 21.5544 104.889C21.0797 103.037 21.2831 103.076 20.3336 101.854C19.384 100.632 19.5487 100.584 20.0913 100.138Z" fill="url(#paint6_linear_4_2522)"/>
<path d="M47.7929 79.9305C47.7929 81.0941 47.289 83.8092 48.6165 83.0528C49.9439 82.2965 49.5854 82.0831 49.3141 81.191C48.9643 80.4214 48.5629 79.6762 48.1126 78.9608C47.9188 78.5244 47.8316 79.1159 47.7929 79.9305Z" fill="url(#paint7_linear_4_2522)"/>
<path d="M63.1601 83.645C63.1601 83.645 68.7024 88.4934 68.7508 89.2982C68.7993 90.103 75.3395 94.6799 76.2697 94.3502C77.1999 94.0205 77.2386 92.1491 76.8123 91.2763C76.386 90.4036 71.9676 88.7455 71.2797 88.1443C70.2901 87.2739 69.2411 86.4736 68.1404 85.7492C67.0455 85.1092 63.6446 82.5008 63.1601 83.645Z" fill="url(#paint8_linear_4_2522)"/>
<path d="M79.1086 94.0671C78.9826 93.9896 79.6415 93.3399 80.0775 92.8066C80.5135 92.2732 82.9843 93.1944 84.6896 93.049C86.3949 92.9035 92.441 92.186 93.4099 91.992C94.3789 91.7981 95.4834 91.4199 95.7257 91.992C95.9679 92.5641 92.3054 94.6005 89.9121 94.358C87.5188 94.1156 80.5716 94.8817 79.1086 94.0671Z" fill="url(#paint9_linear_4_2522)"/>
<path d="M66.4255 0.0582669C66.4255 0.261899 62.8501 1.28975 61.2708 1.83277C59.236 2.54063 56.6005 2.44367 55.7866 3.36486C54.9727 4.28605 51.6202 5.19754 49.5855 5.10058C47.5507 5.00361 40.9427 6.71993 39.5183 6.91387C38.094 7.1078 40.0028 4.81937 40.1869 4.59635C47.7535 1.54719 55.8365 -0.0133783 63.9934 8.63918e-05C64.8073 8.63918e-05 65.6116 0.00978314 66.4255 0.0582669Z" fill="url(#paint10_linear_4_2522)"/>
<path d="M92.9352 7.20489C92.6445 7.90305 90.7648 7.81578 89.6408 7.89336C88.5169 7.97093 85.9783 4.98433 85.4066 5.28493C84.8349 5.58553 82.6452 5.34311 81.3565 5.28493C80.2422 5.26554 78.6241 2.55045 78.1784 1.76501C78.1704 1.74932 78.1663 1.73188 78.1666 1.71425C78.167 1.69661 78.1717 1.67934 78.1803 1.66396C78.189 1.64859 78.2013 1.6356 78.2162 1.62616C78.231 1.61672 78.248 1.61112 78.2656 1.60986C83.5656 2.67651 90.2319 5.20736 92.9158 7.20489H92.9352Z" fill="url(#paint11_linear_4_2522)"/>
<path d="M14.326 85.1947L17.3007 82.2856C17.4944 82.4893 15.1012 84.4383 15.1981 84.5353L16.7096 83.0711" fill="url(#paint12_linear_4_2522)"/>
<path d="M47.9187 71.9493C48.19 72.2208 52.7633 66.8876 52.9474 67.101C53.1315 67.3143 48.8392 70.6985 49.2074 71.0766C50.2234 70.1962 51.1936 69.264 52.1142 68.284C52.1142 68.284 49.5756 70.5433 49.7112 70.6888C49.7112 70.6888 51.5909 68.5846 51.7266 68.7494" fill="url(#paint13_linear_4_2522)"/>
<g filter="url(#filter0_bd_4_2522)">
<path d="M51.643 107.604C51.1278 107.028 50.3411 106.791 49.5912 106.982L32.1064 111.428C31.3157 111.618 30.7365 112.228 30.5556 113.023C30.3709 113.832 30.8629 114.885 31.542 115.343L36.814 118.896C37.3547 119.26 38.0736 119.2 38.5507 118.749L44.9877 112.686C45.3121 112.37 45.8278 112.388 46.1264 112.727C46.4254 113.055 46.4051 113.569 46.0807 113.885L39.6329 119.949C39.1548 120.399 39.0402 121.121 39.3563 121.697L42.4409 127.332C42.8017 128.001 43.4531 128.396 44.1836 128.423C44.2695 128.426 44.3662 128.43 44.4526 128.422C45.2948 128.344 45.9837 127.789 46.2631 126.979L52.0754 109.73C52.3303 108.996 52.1581 108.181 51.643 107.604Z" fill="url(#paint14_linear_4_2522)"/>
<g filter="url(#filter1_bdi_4_2522)">
<path d="M48.4034 110.506C47.8869 109.733 46.9916 109.319 46.0694 109.42L24.5674 111.756C23.5967 111.85 22.808 112.477 22.4617 113.391C22.1086 114.322 22.5187 115.657 23.2495 116.316L28.9237 121.429C29.5057 121.954 30.3694 122.003 31.0106 121.548L39.6585 115.425C40.0962 115.103 40.7055 115.213 41.0041 115.666C41.305 116.107 41.1961 116.713 40.7584 117.034L32.0976 123.157C31.4553 123.611 31.1997 124.451 31.4799 125.189L34.2118 132.408C34.5297 133.265 35.2379 133.845 36.1011 134C36.2027 134.018 36.3169 134.039 36.4208 134.044C37.4341 134.092 38.3439 133.55 38.8097 132.634L48.5654 113.106C48.9896 112.276 48.9199 111.278 48.4034 110.506Z" fill="#DCECFF" fill-opacity="0.0175" shape-rendering="crispEdges"/>
<path d="M41.0507 115.635C40.7344 115.155 40.0891 115.039 39.6257 115.379C39.6256 115.379 39.6254 115.379 39.6253 115.379L30.9781 121.502L30.9781 121.502C30.3582 121.942 29.5237 121.894 28.9613 121.388C28.9613 121.388 28.9613 121.388 28.9612 121.388L23.2871 116.275L38.7596 132.608L38.8097 132.634L38.7594 132.609L38.7595 132.609C38.3033 133.505 37.4138 134.035 36.4235 133.988L36.4208 134.044L36.4236 133.988C36.324 133.983 36.2134 133.963 36.111 133.944C35.2674 133.793 34.5754 133.226 34.2644 132.389L34.2643 132.388L31.5325 125.169L31.5325 125.169C31.2612 124.455 31.5088 123.642 32.13 123.203L32.13 123.203L40.7909 117.08L40.7917 117.08C41.2529 116.741 41.3689 116.101 41.0507 115.635ZM41.0507 115.635C41.0508 115.635 41.0509 115.635 41.051 115.635L41.0041 115.666L41.0505 115.634C41.0505 115.635 41.0506 115.635 41.0507 115.635ZM46.0754 109.476L46.0755 109.476L23.2871 116.274C22.9311 115.954 22.6507 115.465 22.5032 114.94C22.3557 114.416 22.3431 113.862 22.5142 113.411L22.5142 113.411C22.8533 112.516 23.6243 111.903 24.5728 111.812L24.5728 111.812L24.5735 111.812L46.0754 109.476Z" stroke="white" stroke-opacity="0.35" stroke-width="0.112356" shape-rendering="crispEdges"/>
</g>
</g>
<defs>
<filter id="filter0_bd_4_2522" x="10.2839" y="93.0159" width="53.922" height="52.4701" filterUnits="userSpaceOnUse" color-interpolation-filters="sRGB">
<feFlood flood-opacity="0" result="BackgroundImageFix"/>
<feGaussianBlur in="BackgroundImageFix" stdDeviation="4.49424"/>
<feComposite in2="SourceAlpha" operator="in" result="effect1_backgroundBlur_4_2522"/>
<feColorMatrix in="SourceAlpha" type="matrix" values="0 0 0 0 0 0 0 0 0 0 0 0 0 0 0 0 0 0 127 0" result="hardAlpha"/>
<feMorphology radius="0.224712" operator="erode" in="SourceAlpha" result="effect2_dropShadow_4_2522"/>
<feOffset dy="0.898848"/>
<feGaussianBlur stdDeviation="2.69654"/>
<feComposite in2="hardAlpha" operator="out"/>
<feColorMatrix type="matrix" values="0 0 0 0 0 0 0 0 0 0 0 0 0 0 0 0 0 0 0.8 0"/>
<feBlend mode="normal" in2="effect1_backgroundBlur_4_2522" result="effect2_dropShadow_4_2522"/>
<feBlend mode="normal" in="SourceGraphic" in2="effect2_dropShadow_4_2522" result="shape"/>
</filter>
<filter id="filter1_bdi_4_2522" x="10.3331" y="91.4053" width="57.5095" height="54.6416" filterUnits="userSpaceOnUse" color-interpolation-filters="sRGB">
<feFlood flood-opacity="0" result="BackgroundImageFix"/>
<feGaussianBlur in="BackgroundImageFix" stdDeviation="6"/>
<feComposite in2="SourceAlpha" operator="in" result="effect1_backgroundBlur_4_2522"/>
<feColorMatrix in="SourceAlpha" type="matrix" values="0 0 0 0 0 0 0 0 0 0 0 0 0 0 0 0 0 0 127 0" result="hardAlpha"/>
<feOffset dx="4" dy="-3"/>
<feGaussianBlur stdDeviation="7.5"/>
<feComposite in2="hardAlpha" operator="out"/>
<feColorMatrix type="matrix" values="0 0 0 0 1 0 0 0 0 1 0 0 0 0 1 0 0 0 0.25 0"/>
<feBlend mode="normal" in2="effect1_backgroundBlur_4_2522" result="effect2_dropShadow_4_2522"/>
<feBlend mode="normal" in="SourceGraphic" in2="effect2_dropShadow_4_2522" result="shape"/>
<feColorMatrix in="SourceAlpha" type="matrix" values="0 0 0 0 0 0 0 0 0 0 0 0 0 0 0 0 0 0 127 0" result="hardAlpha"/>
<feOffset dy="-4.58"/>
<feGaussianBlur stdDeviation="2.29"/>
<feComposite in2="hardAlpha" operator="arithmetic" k2="-1" k3="1"/>
<feColorMatrix type="matrix" values="0 0 0 0 0.862745 0 0 0 0 0.92549 0 0 0 0 1 0 0 0 0.3026 0"/>
<feBlend mode="normal" in2="shape" result="effect3_innerShadow_4_2522"/>
</filter>
<linearGradient id="paint0_linear_4_2522" x1="10.2199" y1="136.398" x2="78.0669" y2="204.12" gradientUnits="userSpaceOnUse">
<stop stop-color="white"/>
<stop offset="1" stop-color="#C6C6C6"/>
</linearGradient>
<linearGradient id="paint1_linear_4_2522" x1="0" y1="58.3406" x2="96.3659" y2="58.3406" gradientUnits="userSpaceOnUse">
<stop stop-color="#085078"/>
<stop offset="1" stop-color="#85D8CE"/>
</linearGradient>
<linearGradient id="paint2_linear_4_2522" x1="92.0323" y1="39.3228" x2="98.3164" y2="39.3228" gradientUnits="userSpaceOnUse">
<stop stop-color="#085078"/>
<stop offset="1" stop-color="#85D8CE"/>
</linearGradient>
<linearGradient id="paint3_linear_4_2522" x1="80.5747" y1="83.3881" x2="90.897" y2="83.3881" gradientUnits="userSpaceOnUse">
<stop stop-color="#085078"/>
<stop offset="1" stop-color="#85D8CE"/>
</linearGradient>
<linearGradient id="paint4_linear_4_2522" x1="102.616" y1="82.6221" x2="118.486" y2="82.6221" gradientUnits="userSpaceOnUse">
<stop stop-color="#085078"/>
<stop offset="1" stop-color="#85D8CE"/>
</linearGradient>
<linearGradient id="paint5_linear_4_2522" x1="86.2737" y1="101.514" x2="116.537" y2="101.514" gradientUnits="userSpaceOnUse">
<stop stop-color="#085078"/>
<stop offset="1" stop-color="#85D8CE"/>
</linearGradient>
<linearGradient id="paint6_linear_4_2522" x1="19.6525" y1="102.84" x2="25.4033" y2="102.84" gradientUnits="userSpaceOnUse">
<stop stop-color="#085078"/>
<stop offset="1" stop-color="#85D8CE"/>
</linearGradient>
<linearGradient id="paint7_linear_4_2522" x1="47.699" y1="80.9984" x2="49.5718" y2="80.9984" gradientUnits="userSpaceOnUse">
<stop stop-color="#085078"/>
<stop offset="1" stop-color="#85D8CE"/>
</linearGradient>
<linearGradient id="paint8_linear_4_2522" x1="63.1601" y1="88.8628" x2="77.0736" y2="88.8628" gradientUnits="userSpaceOnUse">
<stop stop-color="#085078"/>
<stop offset="1" stop-color="#85D8CE"/>
</linearGradient>
<linearGradient id="paint9_linear_4_2522" x1="79.0928" y1="93.0711" x2="95.7371" y2="93.0711" gradientUnits="userSpaceOnUse">
<stop stop-color="#085078"/>
<stop offset="1" stop-color="#85D8CE"/>
</linearGradient>
<linearGradient id="paint10_linear_4_2522" x1="38.994" y1="3.46276" x2="66.4255" y2="3.46276" gradientUnits="userSpaceOnUse">
<stop stop-color="#085078"/>
<stop offset="1" stop-color="#85D8CE"/>
</linearGradient>
<linearGradient id="paint11_linear_4_2522" x1="78.1666" y1="4.75235" x2="92.9352" y2="4.75235" gradientUnits="userSpaceOnUse">
<stop stop-color="#085078"/>
<stop offset="1" stop-color="#85D8CE"/>
</linearGradient>
<linearGradient id="paint12_linear_4_2522" x1="14.326" y1="83.7402" x2="17.3118" y2="83.7402" gradientUnits="userSpaceOnUse">
<stop stop-color="#085078"/>
<stop offset="1" stop-color="#85D8CE"/>
</linearGradient>
<linearGradient id="paint13_linear_4_2522" x1="47.9187" y1="69.527" x2="52.9532" y2="69.527" gradientUnits="userSpaceOnUse">
<stop stop-color="#085078"/>
<stop offset="1" stop-color="#85D8CE"/>
</linearGradient>
<linearGradient id="paint14_linear_4_2522" x1="40.8884" y1="101.768" x2="47.0958" y2="126.275" gradientUnits="userSpaceOnUse">
<stop offset="0.0745377" stop-color="#2980B9"/>
<stop offset="0.314491" stop-color="#46A4D4"/>
<stop offset="1" stop-color="#6DD5FA"/>
</linearGradient>
</defs>
</svg>
